HIERARCHY
ROOT hip
{
	OFFSET 0.000000 0.000000 0.000000 
	CHANNELS 6 Xposition Yposition Zposition Zrotation Yrotation Xrotation
	JOINT abdomen
	{
		OFFSET 0.000000 20.688101 -0.731520 
		CHANNELS 3 Zrotation Xrotation Yrotation
		JOINT chest
		{
			OFFSET 0.000000 11.704300 -0.487680 
			CHANNELS 3 Zrotation Xrotation Yrotation
			JOINT neck
			{
				OFFSET 0.000000 22.189400 -2.194560 
				CHANNELS 3 Zrotation Xrotation Yrotation
				JOINT head
				{
					OFFSET -0.243840 7.071330 1.219200 
					CHANNELS 3 Zrotation Xrotation Yrotation
					JOINT leftEye
					{
						OFFSET 4.145280 8.046740 8.046720 
						CHANNELS 3 Zrotation Xrotation Yrotation
						End Site
						{
							OFFSET 1.000000 0.000000 0.000000 
						}
					}
					JOINT rightEye
					{
						OFFSET -3.657600 8.046740 8.046720 
						CHANNELS 3 Zrotation Xrotation Yrotation
						End Site
						{
							OFFSET 1.000000 0.000000 0.000000 
						}
					}
				}
			}
			JOINT rCollar
			{
				OFFSET -2.682240 19.263399 -4.876800 
				CHANNELS 3 Zrotation Xrotation Yrotation
				JOINT rShldr
				{
					OFFSET -8.778240 -1.950730 1.463040 
					CHANNELS 3 Zrotation Xrotation Yrotation
					JOINT rForeArm
					{
						OFFSET -28.174200 -1.711500 0.487680 
						CHANNELS 3 Zrotation Xrotation Yrotation
						JOINT rHand
						{
							OFFSET -22.587900 0.773209 7.071360 
							CHANNELS 3 Zrotation Xrotation Yrotation
							JOINT rThumb1
							{
								OFFSET -1.219200 -0.487915 3.413760 
								CHANNELS 3 Zrotation Xrotation Yrotation
								JOINT rThumb2
								{
									OFFSET -3.370350 -0.524490 3.413760 
									CHANNELS 3 Zrotation Xrotation Yrotation
									End Site
									{
										OFFSET -1.782710 -1.182140 1.430490 
									}
								}
							}
							JOINT rIndex1
							{
								OFFSET -7.759470 0.938293 5.608320 
								CHANNELS 3 Zrotation Xrotation Yrotation
								JOINT rIndex2
								{
									OFFSET -2.540570 -0.884171 1.565380 
									CHANNELS 3 Zrotation Xrotation Yrotation
									End Site
									{
										OFFSET -1.625190 -0.234802 1.165020 
									}
								}
							}
							JOINT rMid1
							{
								OFFSET -8.247140 1.182130 3.413760 
								CHANNELS 3 Zrotation Xrotation Yrotation
								JOINT rMid2
								{
									OFFSET -3.101650 -0.590103 1.064700 
									CHANNELS 3 Zrotation Xrotation Yrotation
									End Site
									{
										OFFSET -2.485470 -0.328903 0.837420 
									}
								}
							}
							JOINT rRing1
							{
								OFFSET -8.828220 0.546677 1.516780 
								CHANNELS 3 Zrotation Xrotation Yrotation
								JOINT rRing2
								{
									OFFSET -2.609340 -0.819778 -0.019849 
									CHANNELS 3 Zrotation Xrotation Yrotation
									End Site
									{
										OFFSET -2.338420 -0.294052 0.168128 
									}
								}
							}
							JOINT rPinky1
							{
								OFFSET -8.272020 -0.047791 -0.458400 
								CHANNELS 3 Zrotation Xrotation Yrotation
								JOINT rPinky2
								{
									OFFSET -1.827340 -0.647385 -0.700984 
									CHANNELS 3 Zrotation Xrotation Yrotation
									End Site
									{
										OFFSET -1.692250 -0.517670 -0.607171 
									}
								}
							}
						}
					}
				}
			}
			JOINT lCollar
			{
				OFFSET 2.682240 19.263399 -4.876800 
				CHANNELS 3 Zrotation Xrotation Yrotation
				JOINT lShldr
				{
					OFFSET 8.778240 -1.950730 1.463040 
					CHANNELS 3 Zrotation Xrotation Yrotation
					JOINT lForeArm
					{
						OFFSET 28.174200 -1.711500 0.487680 
						CHANNELS 3 Zrotation Xrotation Yrotation
						JOINT lHand
						{
							OFFSET 22.587900 0.773209 7.071360 
							CHANNELS 3 Zrotation Xrotation Yrotation
							JOINT lThumb1
							{
								OFFSET 1.219200 -0.487915 3.413760 
								CHANNELS 3 Zrotation Xrotation Yrotation
								JOINT lThumb2
								{
									OFFSET 3.370350 -0.524490 3.413760 
									CHANNELS 3 Zrotation Xrotation Yrotation
									End Site
									{
										OFFSET 1.782710 -1.182140 1.430490 
									}
								}
							}
							JOINT lIndex1
							{
								OFFSET 7.759470 0.938293 5.608320 
								CHANNELS 3 Zrotation Xrotation Yrotation
								JOINT lIndex2
								{
									OFFSET 2.540570 -0.884171 1.565380 
									CHANNELS 3 Zrotation Xrotation Yrotation
									End Site
									{
										OFFSET 1.625190 -0.234802 1.165020 
									}
								}
							}
							JOINT lMid1
							{
								OFFSET 8.247140 1.182130 3.413760 
								CHANNELS 3 Zrotation Xrotation Yrotation
								JOINT lMid2
								{
									OFFSET 3.101650 -0.590103 1.064700 
									CHANNELS 3 Zrotation Xrotation Yrotation
									End Site
									{
										OFFSET 2.485470 -0.328903 0.837420 
									}
								}
							}
							JOINT lRing1
							{
								OFFSET 8.828220 0.546677 1.516780 
								CHANNELS 3 Zrotation Xrotation Yrotation
								JOINT lRing2
								{
									OFFSET 2.609340 -0.819778 -0.019849 
									CHANNELS 3 Zrotation Xrotation Yrotation
									End Site
									{
										OFFSET 2.338420 -0.294052 0.168128 
									}
								}
							}
							JOINT lPinky1
							{
								OFFSET 8.272020 -0.047791 -0.458400 
								CHANNELS 3 Zrotation Xrotation Yrotation
								JOINT lPinky2
								{
									OFFSET 1.827340 -0.647385 -0.700984 
									CHANNELS 3 Zrotation Xrotation Yrotation
									End Site
									{
										OFFSET 1.692250 -0.517670 -0.607171 
									}
								}
							}
						}
					}
				}
			}
		}
	}
	JOINT rButtock
	{
		OFFSET -8.778240 4.350840 1.219200 
		CHANNELS 3 Zrotation Xrotation Yrotation
		JOINT rThigh
		{
			OFFSET 0.000000 -1.706870 -2.194560 
			CHANNELS 3 Zrotation Xrotation Yrotation
			JOINT rShin
			{
				OFFSET 0.000000 -36.819901 0.731520 
				CHANNELS 3 Zrotation Xrotation Yrotation
				JOINT rFoot
				{
					OFFSET 0.731520 -45.110401 -5.120640 
					CHANNELS 3 Zrotation Xrotation Yrotation
					End Site
					{
						OFFSET -1.122100 -3.699640 12.103000 
					}
				}
			}
		}
	}
	JOINT lButtock
	{
		OFFSET 8.778240 4.350840 1.219200 
		CHANNELS 3 Zrotation Xrotation Yrotation
		JOINT lThigh
		{
			OFFSET 0.000000 -1.706870 -2.194560 
			CHANNELS 3 Zrotation Xrotation Yrotation
			JOINT lShin
			{
				OFFSET 0.000000 -36.819901 0.731520 
				CHANNELS 3 Zrotation Xrotation Yrotation
				JOINT lFoot
				{
					OFFSET -0.731520 -45.110401 -5.120640 
					CHANNELS 3 Zrotation Xrotation Yrotation
					End Site
					{
						OFFSET 1.122100 -3.699640 12.103000 
					}
				}
			}
		}
	}
}
MOTION
Frames: 9
Frame Time: 0.040000
0.000000 0.000000 -190.000000 0.000000 0.000000 0.000000 -5.366800 10.775300 -0.120300 -0.010200 -0.011800 0.050000 -10.717300 3.677000 -5.237900 13.807400 1.867700 -8.093500 0.000000 0.000000 0.000000 0.000000 0.000000 0.000000 0.000000 0.000000 0.000000 47.721001 27.337500 31.631100 -29.718201 -40.759499 85.362297 1.871100 -107.350998 3.300600 0.000000 0.000000 0.000000 0.000000 0.000000 0.000000 0.000000 0.000000 0.000000 0.023500 0.013400 0.013600 0.000000 0.000000 0.000000 0.029900 0.008500 0.015800 0.000000 0.000000 0.000000 0.015400 0.020800 0.035100 0.000000 0.000000 0.000000 0.027600 -0.022200 -0.029300 0.000000 0.000000 0.000000 -74.630203 19.252100 9.586800 14.930100 -6.830900 -20.391701 -7.304100 -0.584400 -8.737900 0.000000 0.000000 0.000000 0.000000 0.000000 0.000000 0.000000 0.000000 0.000000 -0.013200 0.006100 -0.005200 0.000000 0.000000 0.000000 -0.032900 0.030100 -0.004900 0.000000 0.000000 0.000000 -0.030100 0.004100 -0.032400 0.000000 0.000000 0.000000 -0.003800 -0.018400 0.013800 0.000000 0.000000 0.000000 -2.838100 0.341700 2.018800 0.886000 8.892400 -3.210800 -1.827500 -9.620800 -7.742300 0.000000 0.000000 0.000000 1.554700 -11.040400 -18.823500 5.989600 37.077400 -0.576000 3.477900 -14.290400 10.663900 
0.000000 0.000000 -190.000000 0.000000 0.000000 0.000000 -5.366800 10.775300 -0.120300 -0.010200 -0.011800 0.050000 -10.717300 3.677000 -5.237900 13.807400 1.867700 -8.093500 0.000000 0.000000 0.000000 0.000000 0.000000 0.000000 0.000000 0.000000 0.000000 47.721001 27.337500 31.631100 -29.718201 -40.759499 85.362297 1.871100 -107.350998 3.300600 0.000000 0.000000 0.000000 0.000000 0.000000 0.000000 0.000000 0.000000 0.000000 0.023500 0.013400 0.013600 0.000000 0.000000 0.000000 0.029900 0.008500 0.015800 0.000000 0.000000 0.000000 0.015400 0.020800 0.035100 0.000000 0.000000 0.000000 0.027600 -0.022200 -0.029300 0.000000 0.000000 0.000000 -74.630203 19.252100 9.586800 14.930100 -6.830900 -20.391701 -7.304100 -0.584400 -8.737900 0.000000 0.000000 0.000000 0.000000 0.000000 0.000000 0.000000 0.000000 0.000000 -0.013200 0.006100 -0.005200 0.000000 0.000000 0.000000 -0.032900 0.030100 -0.004900 0.000000 0.000000 0.000000 -0.030100 0.004100 -0.032400 0.000000 0.000000 0.000000 -0.003800 -0.018400 0.013800 0.000000 0.000000 0.000000 -2.838100 0.341700 2.018800 0.886000 8.892400 -3.210800 -1.827500 -9.620800 -7.742300 0.000000 0.000000 0.000000 1.554700 -11.040400 -18.823500 5.989600 37.077400 -0.576000 3.477900 -14.290400 10.663900 
0.000000 0.000000 -190.000000 0.000000 0.000000 0.000000 -5.534300 10.664800 -0.372200 -0.010200 -0.011800 0.050000 -10.680100 3.680400 -5.455400 13.965200 1.913500 -9.242500 0.000000 0.000000 0.000000 0.000000 0.000000 0.000000 0.000000 0.000000 0.000000 47.698299 20.422001 27.374100 -29.568199 -40.284199 84.821297 1.819100 -101.000000 4.957600 0.000000 0.000000 0.000000 0.000000 0.000000 0.000000 0.000000 0.000000 0.000000 0.023500 0.013400 0.013600 0.000000 0.000000 0.000000 0.029900 0.008500 0.015800 0.000000 0.000000 0.000000 0.015400 0.020800 0.035100 0.000000 0.000000 0.000000 0.027600 -0.022200 -0.029300 0.000000 0.000000 0.000000 -74.570602 21.771700 10.400600 15.012800 -6.765300 -21.752800 -7.546100 -0.398500 -9.165500 0.000000 0.000000 0.000000 0.000000 0.000000 0.000000 0.000000 0.000000 0.000000 -0.013200 0.006100 -0.005200 0.000000 0.000000 0.000000 -0.032900 0.030100 -0.004900 0.000000 0.000000 0.000000 -0.030100 0.004100 -0.032400 0.000000 0.000000 0.000000 -0.003800 -0.018400 0.013800 0.000000 0.000000 0.000000 -2.308000 0.526400 1.871100 0.773000 8.959500 -3.222100 -1.810500 -9.468900 -7.769800 0.000000 0.000000 0.000000 2.256700 -12.054700 -17.549801 6.133000 36.970501 -0.599900 3.480500 -14.284700 10.748400 
0.000000 0.000000 -190.000000 0.000000 0.000000 0.000000 -5.296500 10.082300 0.023300 -0.010200 -0.011800 0.050000 -9.681000 3.348700 -5.615500 13.993700 1.910200 -11.010100 0.000000 0.000000 0.000000 0.000000 0.000000 0.000000 0.000000 0.000000 0.000000 35.633301 18.121599 38.671501 -28.575701 -28.654200 67.106598 1.968900 -83.722198 6.371500 0.000000 0.000000 0.000000 0.000000 0.000000 0.000000 0.000000 0.000000 0.000000 0.023500 0.013400 0.013600 0.000000 0.000000 0.000000 0.029900 0.008500 0.015800 0.000000 0.000000 0.000000 0.015400 0.020800 0.035100 0.000000 0.000000 0.000000 0.027600 -0.022200 -0.029300 0.000000 0.000000 0.000000 -75.161003 20.457100 10.739000 14.571400 -6.838100 -19.949600 -7.941400 0.121100 -9.766900 0.000000 0.000000 0.000000 0.000000 0.000000 0.000000 0.000000 0.000000 0.000000 -0.013200 0.006100 -0.005200 0.000000 0.000000 0.000000 -0.032900 0.030100 -0.004900 0.000000 0.000000 0.000000 -0.030100 0.004100 -0.032400 0.000000 0.000000 0.000000 -0.003800 -0.018400 0.013800 0.000000 0.000000 0.000000 -1.728100 -0.660400 1.494900 0.738400 8.732200 -3.203400 -1.862600 -9.603100 -8.371400 0.000000 0.000000 0.000000 1.192800 -10.948600 -16.696600 4.787200 27.655300 -0.327800 3.595800 -13.915200 10.377200 
0.000000 0.000000 -190.000000 0.000000 0.000000 0.000000 -4.938800 10.465300 -0.277600 -0.010200 -0.011800 0.050000 -10.414700 3.376600 -5.227500 13.894000 1.679900 -9.647500 0.000000 0.000000 0.000000 0.000000 0.000000 0.000000 0.000000 0.000000 0.000000 36.179501 16.540800 39.380199 -27.791700 -23.687700 60.606899 2.260000 -31.997601 7.669800 0.000000 0.000000 0.000000 0.000000 0.000000 0.000000 0.000000 0.000000 0.000000 0.023500 0.013400 0.013600 0.000000 0.000000 0.000000 0.029900 0.008500 0.015800 0.000000 0.000000 0.000000 0.015400 0.020800 0.035100 0.000000 0.000000 0.000000 0.027600 -0.022200 -0.029300 0.000000 0.000000 0.000000 -74.560097 21.686600 9.006800 14.781700 -6.957000 -20.629299 -8.163300 -0.258000 -9.639200 0.000000 0.000000 0.000000 0.000000 0.000000 0.000000 0.000000 0.000000 0.000000 -0.013200 0.006100 -0.005200 0.000000 0.000000 0.000000 -0.032900 0.030100 -0.004900 0.000000 0.000000 0.000000 -0.030100 0.004100 -0.032400 0.000000 0.000000 0.000000 -0.003800 -0.018400 0.013800 0.000000 0.000000 0.000000 -2.833100 -6.229300 0.308800 1.163700 9.746400 -3.069800 -1.819700 -9.552200 -8.371400 0.000000 0.000000 0.000000 2.564700 -12.925200 -16.571199 6.121900 36.303101 -0.725500 3.443100 -13.674100 10.564200 
0.000000 0.000000 -190.000000 0.000000 0.000000 0.000000 -5.040500 10.502200 -0.374200 -0.010200 -0.011800 0.050000 -10.221700 3.288700 -5.282600 13.787500 1.662200 -10.289200 0.000000 0.000000 0.000000 0.000000 0.000000 0.000000 0.000000 0.000000 0.000000 36.580002 15.864400 31.839600 -27.395201 -20.552601 52.690701 2.147700 -35.089298 8.542800 0.000000 0.000000 0.000000 0.000000 0.000000 0.000000 0.000000 0.000000 0.000000 0.023500 0.013400 0.013600 0.000000 0.000000 0.000000 0.029900 0.008500 0.015800 0.000000 0.000000 0.000000 0.015400 0.020800 0.035100 0.000000 0.000000 0.000000 0.027600 -0.022200 -0.029300 0.000000 0.000000 0.000000 -75.000099 22.329399 9.862500 14.723700 -6.964800 -20.525200 -8.465000 0.074000 -9.933600 0.000000 0.000000 0.000000 0.000000 0.000000 0.000000 0.000000 0.000000 0.000000 -0.013200 0.006100 -0.005200 0.000000 0.000000 0.000000 -0.032900 0.030100 -0.004900 0.000000 0.000000 0.000000 -0.030100 0.004100 -0.032400 0.000000 0.000000 0.000000 -0.003800 -0.018400 0.013800 0.000000 0.000000 0.000000 -2.958600 -3.615300 0.508000 0.791700 9.839800 -3.052500 -1.822700 -9.440800 -8.371400 0.000000 0.000000 0.000000 0.457000 -13.094400 -16.759001 6.249900 36.856300 -0.775000 3.350700 -13.427900 10.125400 
0.000000 0.000000 -190.000000 0.000000 0.000000 0.000000 -4.780000 10.654600 -0.397200 -0.010200 -0.011800 0.050000 -9.784300 3.423500 -5.020100 13.637400 1.806000 -9.524900 0.000000 0.000000 0.000000 0.000000 0.000000 0.000000 0.000000 0.000000 0.000000 40.360199 17.551800 28.669100 -26.651501 -16.734301 44.586899 2.661100 0.337400 10.173400 0.000000 0.000000 0.000000 0.000000 0.000000 0.000000 0.000000 0.000000 0.000000 0.023500 0.013400 0.013600 0.000000 0.000000 0.000000 0.029900 0.008500 0.015800 0.000000 0.000000 0.000000 0.015400 0.020800 0.035100 0.000000 0.000000 0.000000 0.027600 -0.022200 -0.029300 0.000000 0.000000 0.000000 -75.673599 22.729300 9.608200 14.465400 -6.925300 -20.352400 -9.052900 -0.303300 -10.099100 0.000000 0.000000 0.000000 0.000000 0.000000 0.000000 0.000000 0.000000 0.000000 -0.013200 0.006100 -0.005200 0.000000 0.000000 0.000000 -0.032900 0.030100 -0.004900 0.000000 0.000000 0.000000 -0.030100 0.004100 -0.032400 0.000000 0.000000 0.000000 -0.003800 -0.018400 0.013800 0.000000 0.000000 0.000000 -3.337600 -5.687300 0.260800 0.806500 10.258300 -2.989700 -1.782100 -9.375000 -8.371400 0.000000 0.000000 0.000000 0.480700 -14.142600 -16.257601 6.138600 36.728699 -0.779500 3.331800 -13.068200 9.655000 
0.000000 0.000000 -190.000000 0.000000 0.000000 0.000000 -4.792900 10.202300 -0.065000 -0.010200 -0.011800 0.050000 -8.911400 3.332800 -5.013800 13.694500 1.932000 -9.803400 0.000000 0.000000 0.000000 0.000000 0.000000 0.000000 0.000000 0.000000 0.000000 41.364799 18.509300 28.720900 -26.600100 -16.784800 43.124802 2.742300 2.457500 10.491100 0.000000 0.000000 0.000000 0.000000 0.000000 0.000000 0.000000 0.000000 0.000000 0.023500 0.013400 0.013600 0.000000 0.000000 0.000000 0.029900 0.008500 0.015800 0.000000 0.000000 0.000000 0.015400 0.020800 0.035100 0.000000 0.000000 0.000000 0.027600 -0.022200 -0.029300 0.000000 0.000000 0.000000 -76.219902 21.996599 10.376900 14.140600 -6.870700 -19.905399 -9.110300 -0.210700 -10.208900 0.000000 0.000000 0.000000 0.000000 0.000000 0.000000 0.000000 0.000000 0.000000 -0.013200 0.006100 -0.005200 0.000000 0.000000 0.000000 -0.032900 0.030100 -0.004900 0.000000 0.000000 0.000000 -0.030100 0.004100 -0.032400 0.000000 0.000000 0.000000 -0.003800 -0.018400 0.013800 0.000000 0.000000 0.000000 -2.839700 -3.391400 -0.239500 0.622700 10.451300 -2.973800 -1.803400 -9.383800 -8.371400 0.000000 0.000000 0.000000 -0.241700 -11.985500 -14.630800 4.541900 27.770700 -0.446800 3.416900 -12.831700 9.293000 
0.000000 0.000000 -190.000000 0.000000 0.000000 0.000000 -5.097600 10.487700 -0.347400 -0.010200 -0.011800 0.049900 -10.326400 3.292100 -5.369900 13.756800 1.617700 -10.255300 0.000000 0.000000 0.000000 0.000000 0.000000 0.000000 0.000000 0.000000 0.000000 36.672600 16.391001 31.593399 -27.372400 -20.786600 52.036900 2.135600 -36.151501 8.514900 0.000000 0.000000 0.000000 0.000000 0.000000 0.000000 0.000000 0.000000 0.000000 0.023500 0.013400 0.013600 0.000000 0.000000 0.000000 0.029900 0.008500 0.015800 0.000000 0.000000 0.000000 0.015400 0.020800 0.035000 0.000000 0.000000 0.000000 0.027600 -0.022200 -0.029200 0.000000 0.000000 0.000000 -74.928596 22.367800 9.892600 14.759800 -6.939700 -20.584600 -8.472600 0.145900 -9.988500 0.000000 0.000000 0.000000 0.000000 0.000000 0.000000 0.000000 0.000000 0.000000 -0.013200 0.006100 -0.005200 0.000000 0.000000 0.000000 -0.032800 0.030100 -0.004900 0.000000 0.000000 0.000000 -0.030000 0.004100 -0.032300 0.000000 0.000000 0.000000 -0.003800 -0.018400 0.013800 0.000000 0.000000 0.000000 -3.162100 -3.482900 0.567800 0.727000 9.857900 -3.040100 -1.809800 -9.462500 -8.371400 0.000000 0.000000 0.000000 0.304800 -13.498800 -16.753099 6.230400 36.705898 -0.765600 3.351900 -13.317200 10.001100 
